<mxfile host="app.diagrams.net" modified="2021-07-18T02:29:56.805Z" agent="5.0 (Macintosh; Intel Mac OS X 10_16_0) AppleWebKit/537.36 (KHTML, like Gecko) Chrome/81.0.4044.138 Safari/537.36" etag="qkLUjqXH4umxAnTXAwVf" version="14.8.5" type="github">
  <diagram id="Z4AKtYrA0xERn5aJpjcW" name="Page-1">
    <mxGraphModel dx="1186" dy="607" grid="1" gridSize="10" guides="1" tooltips="1" connect="1" arrows="1" fold="1" page="1" pageScale="1" pageWidth="827" pageHeight="1169" math="0" shadow="0">
      <root>
        <mxCell id="0" />
        <mxCell id="1" parent="0" />
        <mxCell id="TtOdsmfDPJnBqmSysK0O-18" value="alt" style="shape=umlFrame;whiteSpace=wrap;html=1;" parent="1" vertex="1">
          <mxGeometry x="120" y="160" width="390" height="230" as="geometry" />
        </mxCell>
        <mxCell id="TtOdsmfDPJnBqmSysK0O-3" value="" style="shape=umlLifeline;participant=umlActor;perimeter=lifelinePerimeter;whiteSpace=wrap;html=1;container=1;collapsible=0;recursiveResize=0;verticalAlign=top;spacingTop=36;outlineConnect=0;" parent="1" vertex="1">
          <mxGeometry x="70" y="110" width="20" height="300" as="geometry" />
        </mxCell>
        <mxCell id="TtOdsmfDPJnBqmSysK0O-4" value="Application" style="shape=umlLifeline;perimeter=lifelinePerimeter;whiteSpace=wrap;html=1;container=1;collapsible=0;recursiveResize=0;outlineConnect=0;" parent="1" vertex="1">
          <mxGeometry x="140" y="110" width="100" height="300" as="geometry" />
        </mxCell>
        <mxCell id="TtOdsmfDPJnBqmSysK0O-12" value="" style="html=1;points=[];perimeter=orthogonalPerimeter;" parent="TtOdsmfDPJnBqmSysK0O-4" vertex="1">
          <mxGeometry x="45" y="80" width="10" height="210" as="geometry" />
        </mxCell>
        <mxCell id="TtOdsmfDPJnBqmSysK0O-5" value="cache service" style="shape=umlLifeline;perimeter=lifelinePerimeter;whiteSpace=wrap;html=1;container=1;collapsible=0;recursiveResize=0;outlineConnect=0;" parent="1" vertex="1">
          <mxGeometry x="270" y="110" width="100" height="300" as="geometry" />
        </mxCell>
        <mxCell id="TtOdsmfDPJnBqmSysK0O-19" value="" style="html=1;points=[];perimeter=orthogonalPerimeter;" parent="TtOdsmfDPJnBqmSysK0O-5" vertex="1">
          <mxGeometry x="45" y="100" width="10" height="120" as="geometry" />
        </mxCell>
        <mxCell id="TtOdsmfDPJnBqmSysK0O-25" value="" style="html=1;points=[];perimeter=orthogonalPerimeter;" parent="TtOdsmfDPJnBqmSysK0O-5" vertex="1">
          <mxGeometry x="45" y="240" width="10" height="40" as="geometry" />
        </mxCell>
        <mxCell id="TtOdsmfDPJnBqmSysK0O-26" value="4. caching" style="edgeStyle=orthogonalEdgeStyle;html=1;align=left;spacingLeft=2;endArrow=block;rounded=0;entryX=1;entryY=0;" parent="TtOdsmfDPJnBqmSysK0O-5" target="TtOdsmfDPJnBqmSysK0O-25" edge="1">
          <mxGeometry relative="1" as="geometry">
            <mxPoint x="45" y="220" as="sourcePoint" />
            <Array as="points">
              <mxPoint x="75" y="220" />
            </Array>
          </mxGeometry>
        </mxCell>
        <mxCell id="TtOdsmfDPJnBqmSysK0O-6" value="database" style="shape=umlLifeline;perimeter=lifelinePerimeter;whiteSpace=wrap;html=1;container=1;collapsible=0;recursiveResize=0;outlineConnect=0;" parent="1" vertex="1">
          <mxGeometry x="414" y="110" width="100" height="300" as="geometry" />
        </mxCell>
        <mxCell id="TtOdsmfDPJnBqmSysK0O-22" value="" style="html=1;points=[];perimeter=orthogonalPerimeter;" parent="TtOdsmfDPJnBqmSysK0O-6" vertex="1">
          <mxGeometry x="45" y="170" width="10" height="50" as="geometry" />
        </mxCell>
        <mxCell id="TtOdsmfDPJnBqmSysK0O-13" value="1.query" style="html=1;verticalAlign=bottom;startArrow=oval;endArrow=block;startSize=8;entryX=0;entryY=0.071;entryDx=0;entryDy=0;entryPerimeter=0;align=right;" parent="1" source="TtOdsmfDPJnBqmSysK0O-3" target="TtOdsmfDPJnBqmSysK0O-12" edge="1">
          <mxGeometry relative="1" as="geometry">
            <mxPoint x="145" y="190" as="sourcePoint" />
          </mxGeometry>
        </mxCell>
        <mxCell id="TtOdsmfDPJnBqmSysK0O-20" value="2.query" style="html=1;verticalAlign=bottom;endArrow=block;entryX=0;entryY=0.087;entryDx=0;entryDy=0;entryPerimeter=0;" parent="1" source="TtOdsmfDPJnBqmSysK0O-12" target="TtOdsmfDPJnBqmSysK0O-19" edge="1">
          <mxGeometry relative="1" as="geometry">
            <mxPoint x="245" y="210" as="sourcePoint" />
          </mxGeometry>
        </mxCell>
        <mxCell id="TtOdsmfDPJnBqmSysK0O-21" value="return if hit" style="html=1;verticalAlign=bottom;endArrow=open;dashed=1;endSize=8;" parent="1" edge="1">
          <mxGeometry relative="1" as="geometry">
            <mxPoint x="197" y="254" as="targetPoint" />
            <mxPoint x="313" y="254" as="sourcePoint" />
          </mxGeometry>
        </mxCell>
        <mxCell id="TtOdsmfDPJnBqmSysK0O-23" value="3.query if miss" style="html=1;verticalAlign=bottom;endArrow=block;entryX=0;entryY=0.188;entryDx=0;entryDy=0;entryPerimeter=0;exitX=0.9;exitY=0.658;exitDx=0;exitDy=0;exitPerimeter=0;" parent="1" source="TtOdsmfDPJnBqmSysK0O-19" target="TtOdsmfDPJnBqmSysK0O-22" edge="1">
          <mxGeometry relative="1" as="geometry">
            <mxPoint x="324" y="275" as="sourcePoint" />
          </mxGeometry>
        </mxCell>
        <mxCell id="TtOdsmfDPJnBqmSysK0O-24" value="return" style="html=1;verticalAlign=bottom;endArrow=open;dashed=1;endSize=8;entryX=0.9;entryY=0.825;entryDx=0;entryDy=0;entryPerimeter=0;" parent="1" target="TtOdsmfDPJnBqmSysK0O-19" edge="1">
          <mxGeometry relative="1" as="geometry">
            <mxPoint x="324" y="303" as="targetPoint" />
            <mxPoint x="455" y="310" as="sourcePoint" />
          </mxGeometry>
        </mxCell>
        <mxCell id="TtOdsmfDPJnBqmSysK0O-28" value="return" style="html=1;verticalAlign=bottom;endArrow=open;dashed=1;endSize=8;exitX=-0.1;exitY=0.475;exitDx=0;exitDy=0;exitPerimeter=0;entryX=1.2;entryY=0.862;entryDx=0;entryDy=0;entryPerimeter=0;" parent="1" source="TtOdsmfDPJnBqmSysK0O-25" target="TtOdsmfDPJnBqmSysK0O-12" edge="1">
          <mxGeometry relative="1" as="geometry">
            <mxPoint x="310" y="370" as="sourcePoint" />
            <mxPoint x="230" y="370" as="targetPoint" />
          </mxGeometry>
        </mxCell>
        <mxCell id="TtOdsmfDPJnBqmSysK0O-29" value="" style="line;strokeWidth=1;fillColor=none;align=left;verticalAlign=middle;spacingTop=-1;spacingLeft=3;spacingRight=3;rotatable=0;labelPosition=right;points=[];portConstraint=eastwest;" parent="1" vertex="1">
          <mxGeometry x="120" y="260" width="390" height="8" as="geometry" />
        </mxCell>
        <mxCell id="TtOdsmfDPJnBqmSysK0O-31" value="if hit" style="text;align=center;fontStyle=1;verticalAlign=middle;spacingLeft=3;spacingRight=3;strokeColor=#b85450;rotatable=0;points=[[0,0.5],[1,0.5]];portConstraint=eastwest;fillColor=#f8cecc;" parent="1" vertex="1">
          <mxGeometry x="220" y="170" width="80" height="26" as="geometry" />
        </mxCell>
        <mxCell id="TtOdsmfDPJnBqmSysK0O-32" value="if miss" style="text;align=center;fontStyle=1;verticalAlign=middle;spacingLeft=3;spacingRight=3;strokeColor=#b85450;rotatable=0;points=[[0,0.5],[1,0.5]];portConstraint=eastwest;fillColor=#f8cecc;" parent="1" vertex="1">
          <mxGeometry x="220" y="270" width="80" height="26" as="geometry" />
        </mxCell>
      </root>
    </mxGraphModel>
  </diagram>
</mxfile>
